<?xml version="1.0" encoding="UTF-8"?>
<svg width="24px" height="24px" viewBox="0 0 24 24" version="1.1" xmlns="http://www.w3.org/2000/svg" xmlns:xlink="http://www.w3.org/1999/xlink">
    <!-- Generator: Sketch 62 (91390) - https://sketch.com -->
    <title>Global/Logo/24x24/red</title>
    <desc>Created with Sketch.</desc>
    <g id="Global/Logo/24x24/red" stroke="none" stroke-width="1" fill="none" fill-rule="evenodd">
        <g id="virgin-red-logo">
            <rect id="Rectangle" x="0" y="0" width="24" height="24"></rect>
            <path d="M9.44695428,11.6551567 C9.38978388,11.7735678 9.36062697,11.9019593 9.35147971,12.0334414 C9.34290414,12.1572612 9.34036324,12.2814673 9.33420154,12.4054159 C9.32823041,12.5248573 9.32213223,12.6442987 9.31412837,12.7636113 C9.3091736,12.8378517 9.30021691,12.9117701 9.2937376,12.9858817 C9.29043442,13.0239356 9.29742191,13.0655952 9.28420919,13.0994637 C9.25689444,13.1694544 9.24647673,13.2397671 9.25174911,13.3137499 C9.25187615,13.3158747 9.25035161,13.3181284 9.25047865,13.3203176 C9.25384536,13.377173 9.23332753,13.4329337 9.24546036,13.4908193 C9.25073275,13.5156091 9.24654025,13.54291 9.24380877,13.5687943 C9.23840935,13.6199191 9.21465187,13.6758086 9.22792811,13.7208164 C9.2539724,13.8092224 9.23300992,13.8942157 9.23377219,13.9804324 C9.23440742,14.0558962 9.20537756,14.1280117 9.21477891,14.206373 C9.22443436,14.2865372 9.217828,14.3687618 9.2183997,14.4499562 C9.21890789,14.5149889 9.24044207,14.5742911 9.27118705,14.6296655 C9.31857496,14.7149808 9.40439409,14.7606969 9.48627482,14.7455011 C9.64076196,14.7167837 9.80801716,14.6357181 9.94325693,14.5025619 C10.0332686,14.4140272 10.0882157,14.3045661 10.1075266,14.1836437 C10.128235,14.0542221 10.1375728,13.9222249 10.1405584,13.7900989 C10.1448779,13.5985419 10.1544698,13.406985 10.1631724,13.2154281 C10.1654592,13.1664281 10.1838173,13.1157541 10.175877,13.0690722 C10.161902,12.9869119 10.1828645,12.907778 10.1827374,12.8272275 C10.1827374,12.7880147 10.1908683,12.7426849 10.2245353,12.7200844 C10.2271398,12.6758492 10.2198982,12.6384393 10.2329203,12.6109453 C10.2554074,12.5632975 10.2547086,12.5124946 10.2679213,12.4641386 C10.2750994,12.4376104 10.295109,12.4126275 10.2952996,12.3867432 C10.2956807,12.3453411 10.3110532,12.3122452 10.3317616,12.2800508 C10.4145316,12.151595 10.5000332,12.0257791 10.6249823,11.9334454 C10.704068,11.8751091 10.7811845,11.8139396 10.8569671,11.7512893 C10.9657814,11.661338 11.0749769,11.5705497 11.0651309,11.4062292 C11.0644321,11.3953475 11.0716737,11.3840151 11.0709114,11.3731334 C11.0688787,11.3442871 11.0704033,11.3131229 11.059795,11.2874317 C11.0377526,11.2338602 11.0087863,11.1831218 10.9826149,11.1312887 C10.9441837,11.055181 10.8778025,11.0321298 10.7992885,11.0322581 C10.7222355,11.032323 10.6547744,11.0648394 10.5872498,11.0968407 C10.5423393,11.1181534 10.4984451,11.1417197 10.4531534,11.1620666 C10.4100215,11.1813833 10.3632053,11.1934884 10.3222967,11.2165396 C10.2472129,11.2589719 10.1668567,11.2849206 10.0831974,11.2938062 C9.95564385,11.3072635 9.83253691,11.3334698 9.71832315,11.3937378 C9.60334711,11.4543921 9.50463287,11.5357153 9.44695428,11.6551567" id="Fill-1" fill="#E10A0A"></path>
            <path d="M8.54148645,12.4072984 C8.5287919,12.3555461 8.53970351,12.3426411 8.59290653,12.3152428 C8.57607555,12.2851312 8.54462443,12.2551519 8.55025853,12.2333127 C8.56373758,12.1801044 8.53770661,12.1372863 8.5231578,12.0929461 C8.49990822,12.0220679 8.4474897,11.9764041 8.36276425,11.9646904 C8.30884806,11.9571459 8.25849775,11.9626388 8.20743426,11.9764041 C8.11008558,12.0026112 8.02471827,12.0488044 7.94120522,12.1018803 C7.80334808,12.1893696 7.70107847,12.3000216 7.63218555,12.4420426 C7.56150969,12.5877698 7.5224989,12.7395854 7.50374234,12.8966954 C7.48919353,13.0187964 7.48049277,13.1415593 7.4693672,13.2640574 C7.46829744,13.2755726 7.46908193,13.2872864 7.46865403,13.298934 C7.46537341,13.3862908 7.46287729,13.4737139 7.45845559,13.5611369 C7.45175173,13.6953488 7.44390678,13.8295607 7.43591919,13.9638388 C7.43406493,13.9950093 7.44497654,14.0288932 7.41202776,14.0544384 C7.40560916,14.0593357 7.40924637,14.0761453 7.40931768,14.087462 C7.40981691,14.144641 7.42179829,14.2040039 7.40917505,14.2585358 C7.38157509,14.3775264 7.3852123,14.4973774 7.37979215,14.6172283 C7.37365883,14.7540212 7.3631038,14.8906156 7.35953792,15.0275408 C7.35568676,15.1734665 7.35147902,15.3197892 7.35903869,15.4654502 C7.36574256,15.5951619 7.45046801,15.6648488 7.59003678,15.6762979 C7.65928629,15.6819893 7.7205482,15.665643 7.78287989,15.635796 C7.89734483,15.5809995 7.99768886,15.5091948 8.09560808,15.4333531 C8.12042665,15.4140949 8.13140958,15.3735931 8.17883586,15.3902042 C8.18361415,15.3919248 8.20001722,15.380939 8.20058776,15.3749829 C8.20493814,15.3266057 8.24851327,15.3485773 8.27875198,15.3395769 C8.28388686,15.3182009 8.28895041,15.297222 8.29486979,15.272868 C8.26940936,15.2714121 8.2526497,15.2705517 8.22683268,15.2690958 C8.23225283,15.2422931 8.2361753,15.2182038 8.24223731,15.1945116 C8.24844195,15.1701575 8.25928224,15.14673 8.26363263,15.1221113 C8.27568532,15.0537479 8.27418765,14.9813476 8.29872094,14.9172859 C8.33487903,14.822914 8.30834883,14.7294687 8.31540929,14.6360233 C8.32033021,14.5699762 8.31234263,14.5030026 8.31904649,14.4372203 C8.33031469,14.3267006 8.34800149,14.2167766 8.36433324,14.1067864 C8.37246346,14.0519898 8.38465879,13.9977226 8.39343087,13.9429922 C8.40113318,13.8952769 8.4088355,13.8474291 8.41254402,13.7993167 C8.41582463,13.755903 8.41225875,13.7141438 8.4330122,13.67073 C8.45426488,13.6260589 8.46275169,13.5738434 8.46553308,13.5244073 C8.47116718,13.4227557 8.46917029,13.3207732 8.47059664,13.218923 C8.47073928,13.2074078 8.46874238,13.1937749 8.4744478,13.1846421 C8.51809424,13.1143595 8.51809424,13.0346795 8.53128802,12.9581761 C8.53956087,12.9104607 8.54826164,12.8615541 8.5456942,12.8137725 C8.54348335,12.772278 8.5505438,12.7366735 8.57044145,12.7002748 C8.58128174,12.6804872 8.59476079,12.6522285 8.58720111,12.6354851 C8.56958563,12.5963731 8.57999802,12.5635481 8.59354839,12.5397897 C8.57329416,12.4894933 8.55189884,12.4495871 8.54148645,12.4072984" id="Fill-3" fill="#E10A0A"></path>
            <path d="M6.79716111,12.9394994 C6.77936778,12.8645155 6.80247152,12.7747116 6.85640326,12.7136639 C6.87033447,12.6978921 6.88323119,12.6639013 6.87530006,12.6502369 C6.85633429,12.6173337 6.88605882,12.6029896 6.8899899,12.5800797 C6.89405892,12.5562181 6.86729995,12.5325605 6.88971404,12.5058436 C6.89771414,12.4963262 6.89771414,12.4792628 6.89895554,12.4653945 C6.90164523,12.4354145 6.89854174,12.4044148 6.90509355,12.3753186 C6.93633533,12.2360919 6.97026681,12.0974771 7.00261205,11.9584544 C7.04406087,11.7800702 7.0811648,11.6005983 7.1271654,11.4233018 C7.16516589,11.2765972 7.19089036,11.1256776 7.26020161,10.9878786 C7.27496042,10.9583745 7.2803398,10.9241117 7.29654691,10.8956953 C7.32206448,10.8508953 7.31530577,10.7918871 7.36178913,10.7566726 C7.36854784,10.7515739 7.37178926,10.7405609 7.37420309,10.7315873 C7.3891688,10.67659 7.40337588,10.6213888 7.41792779,10.5662556 C7.43075555,10.5177166 7.44020395,10.467682 7.49579088,10.4449081 C7.50544617,10.4409652 7.51344628,10.4283886 7.51799806,10.4179874 C7.54448116,10.3570757 7.57420569,10.2969118 7.57399879,10.2284542 C7.57392982,10.202893 7.56820561,10.176788 7.5719298,10.1519747 C7.58730931,10.0513616 7.61303378,9.95163238 7.61944765,9.85054348 C7.62310287,9.79248705 7.64110311,9.74421999 7.66848277,9.69772045 C7.72041448,9.60954809 7.73896645,9.51063461 7.75903567,9.41416847 C7.77455312,9.33932053 7.81400191,9.2797685 7.84931271,9.21695334 C7.86386462,9.19112026 7.87372682,9.17337702 7.85669212,9.14679615 C7.84165744,9.12320647 7.84069191,9.09859707 7.85427829,9.07222014 C7.90607207,8.97167509 7.93021031,8.86256434 7.95421062,8.75331763 C7.96786597,8.69118229 7.98276272,8.62904695 8.00186642,8.5684072 C8.02379773,8.49858992 8.052005,8.43067613 8.07545358,8.36133472 C8.09876423,8.2924012 8.11841965,8.22224401 8.14166133,8.15331049 C8.15835121,8.10354783 8.17131689,8.05065801 8.19862759,8.00680976 C8.23055904,7.95541554 8.24966274,7.90252572 8.26262842,7.84453726 C8.27449065,7.79151148 8.29180122,7.73889359 8.3138015,7.68913093 C8.35787104,7.58940166 8.40635443,7.49157589 8.45387229,7.39334222 C8.46932076,7.36139079 8.48973482,7.33161477 8.5035281,7.29898352 C8.5133903,7.27566577 8.52152834,7.2490849 8.52042488,7.22440751 C8.51828692,7.17743211 8.52932154,7.1356913 8.54828731,7.09327067 C8.61552956,6.94289498 8.67718553,6.79007195 8.74691058,6.64091994 C8.86691214,6.38456066 8.95208566,6.11161384 9.12188096,5.87857231 C9.16050216,5.82561451 9.18298521,5.76157568 9.21808911,5.70569466 C9.32002147,5.54369409 9.44105752,5.39549382 9.56857642,5.25266411 C9.61161146,5.20453301 9.66175005,5.16265624 9.70933687,5.11724441 C9.73161302,5.12859737 9.74713047,5.12655792 9.74988912,5.10521164 C9.7573375,5.04742713 9.80030357,5.02954792 9.8464421,5.01255248 C9.85685603,5.0087455 9.87085621,5.00289907 9.8743735,4.99446933 C9.88933921,4.95789513 9.92513278,4.92913884 9.91713267,4.88331912 C9.91533955,4.87325782 9.92099479,4.85986541 9.9273397,4.85082384 C9.96271947,4.80044934 10.0009269,4.75197834 10.0352721,4.70092402 C10.099135,4.6058855 10.1372045,4.50214531 10.1413425,4.38664428 C10.1447218,4.29072199 10.1336872,4.19813081 10.10748,4.1049278 C10.0408584,3.86835122 9.88782195,3.71926719 9.65264648,3.64802229 C9.58623182,3.62796767 9.51602402,3.60832093 9.45616117,3.60308634 C9.42154003,3.6 9.33815964,3.59778376 9.30471093,3.60369817 C9.1491227,3.63102685 9.0220176,3.71274094 8.91042994,3.81858856 C8.80601479,3.91757003 8.71518603,4.02579701 8.64277129,4.1523111 C8.56504614,4.28800272 8.49883839,4.42729738 8.44373422,4.57257443 C8.40566476,4.67284755 8.36711254,4.77291672 8.32738789,4.87251002 C8.29731853,4.94803777 8.26297326,5.02186598 8.23407633,5.09773364 C8.15510979,5.30521402 8.07841913,5.51351018 8.00028019,5.72126248 C7.92538266,5.92024514 7.84869201,6.11861596 7.77496692,6.3180065 C7.72779389,6.44567628 7.68558644,6.5750456 7.63930998,6.7029873 C7.54020525,6.97702183 7.43999705,7.2505805 7.33992678,7.52427512 C7.32434037,7.56683171 7.31378851,7.6131273 7.28909854,7.65004141 C7.25020148,7.70796188 7.23764959,7.77200071 7.22075282,7.83671936 C7.19971806,7.9171418 7.17895917,7.99946773 7.14254491,8.07356786 C7.08088893,8.1991302 7.0444057,8.33142274 7.00502588,8.46405518 C6.97812898,8.55467489 6.97557722,8.65338442 6.91909373,8.73543843 C6.91040396,8.74801505 6.90999016,8.76745784 6.90964533,8.78384145 C6.90833497,8.84271367 6.91599024,8.90321745 6.87074827,8.95230029 C6.86785168,8.95542745 6.86805858,8.96134186 6.86688615,8.96596462 C6.84681693,9.04427963 6.82785116,9.12286656 6.80633364,9.20077368 C6.77205734,9.32504436 6.73543617,9.44863523 6.700884,9.57283793 C6.66826288,9.68990255 6.63529694,9.80696716 6.60577931,9.92484756 C6.59136533,9.98229216 6.58853771,10.042728 6.5729513,10.0998327 C6.55226138,10.1752924 6.52032993,10.247761 6.50012277,10.3233567 C6.42874253,10.5905251 6.36039682,10.8585093 6.29067177,11.1261535 C6.28108544,11.1627957 6.26963702,11.19903 6.26060242,11.2358081 C6.23211929,11.3516491 6.20425686,11.467558 6.17639443,11.5834669 C6.1641184,11.6345212 6.15094582,11.6854396 6.14080776,11.7369018 C6.09356576,11.9751779 6.05142728,12.2146097 5.99935764,12.4518661 C5.95535707,12.6524123 5.91390826,12.8528906 5.88452857,13.0562241 C5.85721787,13.2449415 5.81735528,13.4318234 5.78369967,13.619725 C5.77149261,13.6877748 5.76080282,13.7560965 5.75018199,13.8244181 C5.73563008,13.9186409 5.72231956,14.0131355 5.70749178,14.1074263 C5.67273271,14.3288429 5.63604258,14.5498517 5.60280077,14.7714722 C5.58224878,14.9080476 5.56831756,15.0455068 5.5476966,15.1820822 C5.54162756,15.2224633 5.52279973,15.260941 5.50893748,15.3029538 C5.48321301,15.2823553 5.46259205,15.2711383 5.4499712,15.2541429 C5.4384538,15.238711 5.43100543,15.2172967 5.429833,15.1980579 C5.42686745,15.148975 5.42935024,15.0995523 5.42741918,15.0504015 C5.42700538,15.0404761 5.41866044,15.0257241 5.41010861,15.022257 C5.38024615,15.0098164 5.38417724,14.9853429 5.38341861,14.9620931 C5.38059098,14.8765721 5.38341861,14.790983 5.35472858,14.7076374 C5.34603881,14.6824841 5.35486651,14.6512805 5.35659067,14.6229321 C5.35955623,14.5758207 5.36590114,14.5288453 5.36555631,14.4818019 C5.36534941,14.4592999 5.36038383,14.4286402 5.34521121,14.4159955 C5.28776219,14.3676605 5.2859001,14.2953279 5.27162405,14.235096 C5.25748594,14.1751361 5.27134819,14.1019877 5.2939002,14.0423677 C5.31514186,13.9862148 5.3205902,13.9394433 5.29424503,13.8874372 C5.28783116,13.8747926 5.28245178,13.8615362 5.27776206,13.8480758 C5.25210656,13.7739077 5.21576126,13.701983 5.22031304,13.6208127 C5.22369239,13.5599011 5.20748529,13.5046999 5.18789883,13.4473912 C5.16672614,13.3857317 5.13782921,13.3189736 5.18134702,13.2577221 C5.16520888,13.2235952 5.13424296,13.1898083 5.13803611,13.1603042 C5.15217422,13.0507855 5.09279414,12.963361 5.05872473,12.8690023 C5.04596595,12.8337877 5.03244853,12.8039437 5.04596595,12.7790624 C5.02900021,12.7481307 5.00934478,12.7261046 5.004793,12.7014272 C4.99320664,12.6380682 4.99348251,12.5738254 4.97741333,12.5096506 C4.95410269,12.4167195 4.95010263,12.3192337 4.93361966,12.2243991 C4.91617116,12.1243299 4.87341198,12.027116 4.9035503,11.9223561 C4.9054124,11.9159658 4.904171,11.9072641 4.90106751,11.9012817 C4.88051552,11.8617843 4.91375733,11.8046796 4.85844627,11.7756514 C4.85396345,11.77334 4.8592049,11.7540332 4.85886007,11.7426802 C4.85823937,11.7250729 4.86127389,11.7056981 4.85465312,11.6904022 C4.82548032,11.6223525 4.83672185,11.5447173 4.80148001,11.4781631 C4.7965834,11.4689856 4.80148001,11.4549134 4.80113518,11.4430845 C4.80079035,11.4292842 4.80134208,11.415212 4.79837652,11.4018876 C4.79106608,11.3697322 4.77906593,11.3383246 4.77396241,11.3058293 C4.75616908,11.1929796 4.7425827,11.079518 4.72354797,10.9668722 C4.68189225,10.7203023 4.63844341,10.4741403 4.59458077,10.2279783 C4.57685641,10.1280451 4.53892488,10.0345701 4.48030343,9.95176834 C4.34478443,9.76026368 4.05615999,9.72124215 3.86222643,9.83871465 C3.75450089,9.90397716 3.68263789,9.99718017 3.63939595,10.1122733 C3.61084386,10.188141 3.59098153,10.2673397 3.56036044,10.3423236 C3.46635922,10.572238 3.42084139,10.8186719 3.31187446,11.0432157 C3.30559851,11.1302324 3.26670145,11.2073917 3.23835626,11.2880861 C3.21559734,11.3528047 3.20532135,11.4216703 3.18518315,11.4874087 C3.16359667,11.5581097 3.13449284,11.6266353 3.11318222,11.6974044 C3.08166457,11.8018924 3.03573294,11.9010098 3.01131883,12.0087609 C2.99352549,12.0875518 2.9731804,12.1706255 2.91883487,12.239695 C2.89855874,12.2654601 2.89800701,12.3063851 2.88890344,12.340512 C2.87669639,12.3862637 2.87773088,12.4426206 2.85000639,12.4755238 C2.80690238,12.5265781 2.79752295,12.5854503 2.77855718,12.6427589 C2.76890188,12.6717871 2.77014328,12.7044184 2.76007418,12.7332427 C2.71324599,12.8675067 2.647521,12.9938848 2.61048603,13.1331795 C2.56724409,13.2959958 2.49965701,13.4525578 2.44386318,13.612247 C2.42896643,13.6549396 2.41544902,13.6986519 2.40655235,13.742976 C2.37296571,13.9114348 2.47138078,14.078738 2.63572774,14.1352308 C2.7817986,14.1854693 2.91669691,14.1527701 3.04200888,14.0743871 C3.08338873,14.0484861 3.11642364,14.0095325 3.15325171,13.9765614 C3.13959636,13.9236715 3.18752801,13.8917881 3.19980403,13.8468521 C3.21587321,13.7882518 3.24732189,13.7340704 3.26746009,13.6763538 C3.2906328,13.6100716 3.34056448,13.5561621 3.35021978,13.4826738 C3.3542888,13.4510622 3.38394436,13.4227138 3.40242736,13.392258 C3.38477195,13.3794774 3.39725487,13.3635697 3.40553084,13.3457585 C3.43042772,13.2921208 3.46001431,13.239435 3.47525589,13.1831461 C3.48725604,13.1391618 3.4910492,13.0959254 3.51077359,13.0508535 C3.54063605,12.9825998 3.53815326,12.9008857 3.5809814,12.8340596 C3.57015367,12.7670976 3.61925776,12.7187626 3.6448443,12.6667565 C3.6713274,12.6129149 3.68325859,12.5643759 3.67470675,12.5054357 C3.69994846,12.4928591 3.73615583,12.4872846 3.72746606,12.4442521 C3.72670743,12.4405131 3.74139728,12.4348027 3.74732839,12.4285484 C3.76284583,12.4123007 3.78243229,12.3974807 3.79160483,12.3780379 C3.81070852,12.3374528 3.82263971,12.2935365 3.84091581,12.2525435 C3.84670899,12.239559 3.86705408,12.2204561 3.87443349,12.2229035 C3.90505457,12.2328968 3.9351929,12.2473769 3.9618829,12.2654601 C3.9900212,12.284563 4.00015926,12.3123675 3.98388319,12.3464944 C3.9799521,12.3548561 3.98519355,12.3674327 3.98664184,12.3828646 C4.01160768,12.3757945 4.02981482,12.3432312 4.05278063,12.3730072 C4.04822885,12.3949654 4.04147014,12.4167875 4.03953908,12.4389496 C4.03650456,12.4728725 4.0347804,12.5070673 4.03622869,12.5410582 C4.03753905,12.5701544 4.04919438,12.5994545 4.04705642,12.6280749 C4.0446426,12.6597544 4.0532634,12.6815765 4.07409125,12.7050982 C4.09395358,12.7276002 4.11326418,12.7550648 4.11995392,12.7833452 C4.13464376,12.8454806 4.14119557,12.9094514 4.15105777,12.9726065 C4.1803685,13.160848 4.20995509,13.3490216 4.23857615,13.5373311 C4.24457623,13.5771684 4.24967974,13.6174816 4.2505763,13.6575909 C4.2522315,13.7307393 4.23595543,13.8059271 4.2875423,13.8711896 C4.29526654,13.880979 4.29243892,13.8987902 4.29450791,13.9128624 C4.31602543,14.0615386 4.33699122,14.2102147 4.35926737,14.3587549 C4.38050903,14.500089 4.40368174,14.6410832 4.42506133,14.7824173 C4.45416516,14.9750097 4.48216552,15.167738 4.51085555,15.3603984 C4.53216617,15.5037039 4.55306299,15.6470095 4.57547708,15.7901791 C4.60671886,15.9899096 4.63906411,16.1895041 4.67099556,16.3891666 C4.68471988,16.4750276 4.71244437,16.5600728 4.68437504,16.6481771 C4.67878876,16.6657164 4.6774784,16.6845474 4.67458181,16.7003871 C4.7512035,16.7614348 4.75589321,16.7858402 4.70761672,16.8679622 C4.74541032,16.8680302 4.75803117,16.8914159 4.76313469,16.9230274 C4.78313495,17.0468902 4.79630753,17.1719087 4.82741138,17.294004 C4.83141144,17.3096398 4.83361836,17.3293545 4.82734242,17.3430868 C4.81589399,17.36858 4.81948025,17.3877509 4.83561839,17.4090292 C4.84389436,17.4199742 4.84899787,17.4346583 4.85148066,17.4483906 C4.87513614,17.581363 4.89858472,17.7144033 4.92092984,17.8475796 C4.94534395,17.9931966 4.96437868,18.1398332 4.99348251,18.2844985 C5.02768985,18.4547248 5.07486287,18.6225038 5.10769089,18.7929342 C5.13707058,18.9455532 5.30831418,19.1058543 5.49645456,19.0813808 C5.65666354,19.0605784 5.83894177,18.9690069 5.88983898,18.7736953 C5.92211526,18.6496286 5.95080529,18.5242702 5.97321937,18.398164 C6.00239217,18.234124 6.02466832,18.0688603 6.04825483,17.9038685 C6.07915178,17.6871426 6.11004874,17.4702807 6.13811807,17.2532149 C6.16687706,17.0311185 6.19156704,16.8084782 6.2193605,16.5862457 C6.24453324,16.3852236 6.27094738,16.1842695 6.29791325,15.9834513 C6.30839614,15.9056802 6.31356862,15.8257336 6.33667237,15.7514295 C6.35770713,15.6835837 6.39356966,15.6205646 6.38232814,15.5487079 C6.46088088,15.5190678 6.47901905,15.4842612 6.43384605,15.44388 C6.4012939,15.4147158 6.39784558,15.3856876 6.40136287,15.3497252 C6.40370772,15.3262035 6.40722501,15.3028858 6.41019057,15.2795001 C6.42060449,15.1968342 6.43694953,15.1143043 6.43915646,15.0314346 C6.44060475,14.9773211 6.45432907,14.9244992 6.48832951,14.8938394 C6.55039928,14.8378904 6.54350264,14.761343 6.56757192,14.6956046 C6.58674458,14.6432586 6.57646859,14.5803755 6.57936518,14.5199397 C6.54019225,14.5081788 6.51212292,14.4922711 6.51777817,14.4501224 C6.52474378,14.3982523 6.5269507,14.3456344 6.53736463,14.2945121 C6.56005458,14.1836338 6.58736528,14.0737073 6.61108973,13.963033 C6.61543461,13.9428424 6.61681394,13.9197286 6.61122766,13.9003538 C6.60095166,13.8652072 6.61391735,13.8416855 6.6370211,13.817348 C6.64909022,13.8047034 6.66026278,13.7860084 6.66136624,13.7693529 C6.66598699,13.7042264 6.66867668,13.6388279 6.66743529,13.5735654 C6.66681459,13.5394385 6.67633195,13.5106143 6.68688382,13.4787988 C6.7086772,13.4129924 6.74674666,13.3496334 6.72543604,13.2731539 C6.719367,13.2511278 6.7353672,13.2163212 6.75205708,13.1960626 C6.81681654,13.1178156 6.81867863,13.0301871 6.79716111,12.9394994" id="Fill-5" fill="#E10A0A"></path>
            <path d="M15.0454775,11.9607377 C15.1271382,11.9649974 15.2010034,11.9442314 15.2707006,11.9122838 C15.3612375,11.8708185 15.4501536,11.8266909 15.5386065,11.7818311 C15.6237406,11.7387018 15.6925888,11.6770696 15.7425268,11.6065186 C15.782431,11.550211 15.8411681,11.4973643 15.8376948,11.421755 C15.8364599,11.3951985 15.8498899,11.3684424 15.852051,11.3415532 C15.8537491,11.3215194 15.8490409,11.3009531 15.845336,11.2809193 C15.8404734,11.2542297 15.828124,11.2275402 15.828973,11.2011168 C15.8335269,11.0684677 15.8403962,10.9358186 15.8485778,10.8032361 C15.8512792,10.7599071 15.8607728,10.7169775 15.8671019,10.6743142 C15.89018,10.6755788 15.9063114,10.676444 15.9263793,10.6775755 C15.912409,10.6594718 15.9014488,10.6476246 15.8934989,10.6343131 C15.8843912,10.6190049 15.8780621,10.6024986 15.8688,10.5827976 C15.894811,10.5871904 15.9154192,10.5907179 15.9524675,10.5969743 C15.9357958,10.5721484 15.9307788,10.5534457 15.9181206,10.5479215 C15.8754378,10.5293519 15.8742029,10.4970715 15.8753606,10.4644583 C15.8765956,10.4307803 15.867951,10.3865195 15.8888678,10.3658201 C15.9395778,10.3154361 15.9435142,10.2631884 15.9338662,10.2034198 C15.9278458,10.1656151 15.9248356,10.1269452 15.9257618,10.0888078 C15.9276914,10.0106027 15.9331715,9.93239763 15.936722,9.85425912 C15.9369535,9.85013255 15.9310875,9.84593943 15.9307016,9.84161319 C15.9288492,9.81944954 15.9210536,9.79535572 15.9283089,9.77552159 C15.9395778,9.74497169 15.9388059,9.71721721 15.9303929,9.6870001 C15.9099391,9.61352061 15.9077779,9.53930899 15.9261478,9.46516393 C15.9374166,9.41990482 15.9511554,9.3749785 15.9604947,9.32945317 C15.9620383,9.32213184 15.94637,9.31221477 15.937571,9.30229771 C15.9800994,9.24339431 15.9841902,9.18129616 15.9888984,9.12119473 C15.9914455,9.08884778 15.9737703,9.05856411 15.997543,9.02348831 C16.0174565,8.99400333 16.0233225,8.95420194 16.023554,8.9188599 C16.0237856,8.87652933 16.0345914,8.83466466 16.0067279,8.79047047 C15.986197,8.75765762 15.9582563,8.72364673 15.9595685,8.67838763 C15.9614981,8.6054406 15.9181978,8.56311002 15.83399,8.55771887 C15.7234624,8.55066377 15.611777,8.55319296 15.5116693,8.60470847 C15.3841612,8.67026761 15.2744826,8.75432974 15.2035505,8.86694505 C15.1339304,8.97749707 15.0798244,9.09463828 15.0699449,9.22316083 C15.0663172,9.27174781 15.0590619,9.32013512 15.0524241,9.36845587 C15.0213961,9.59508418 14.9872807,9.82131315 14.9594173,10.0482077 C14.9280805,10.3029898 14.9025326,10.5583044 14.8738201,10.8132862 C14.8530576,10.998782 14.8291305,11.1840116 14.810452,11.3695739 C14.7984885,11.4879131 14.7842094,11.606918 14.7876055,11.7251907 C14.7916963,11.8677568 14.874592,11.9517524 15.0454775,11.9607377" id="Fill-8" fill="#E10A0A"></path>
            <path d="M15.477697,7.84909519 C15.5053898,7.87398615 15.5406475,7.89196687 15.5751622,7.90564632 C15.6536476,7.93667188 15.7416567,7.94872954 15.815279,7.91615271 C15.9386133,7.86157593 16.0558011,7.78866587 16.1274647,7.66040339 C16.1369883,7.64340985 16.1488084,7.6275445 16.1612364,7.61280736 C16.2302658,7.53185886 16.2981469,7.45309625 16.3228003,7.34027604 C16.3322564,7.29655821 16.3377949,7.259116 16.3345528,7.21412894 C16.3291494,7.14128939 16.2840304,7.09461003 16.2549192,7.03996274 C16.2263483,7.03622557 16.1991283,7.03784736 16.1758933,7.02861021 C16.0968,6.99716157 16.0184496,7.0028731 15.9385458,7.02289868 C15.7906257,7.06005884 15.6674265,7.14284067 15.5669894,7.25770575 C15.4408183,7.40225664 15.3642916,7.56704467 15.4312271,7.76934541 C15.4407508,7.79839661 15.4561507,7.82963371 15.477697,7.84909519" id="Fill-10" fill="#E10A0A"></path>
            <path d="M21.6,10.0544568 C21.5935802,10.045767 21.5843897,10.0379462 21.5813487,10.0281869 C21.5542502,9.94182376 21.5095817,9.86508624 21.4433561,9.8037898 C21.4176768,9.78006 21.3793605,9.76622318 21.3444231,9.75673126 C21.3138782,9.74844254 21.2787381,9.75746655 21.2475174,9.75051472 C21.0535709,9.70739999 20.8708422,9.73854954 20.6970337,9.8288565 C20.5232252,9.91916346 20.3523225,10.0148848 20.1768246,10.1017159 C20.0605918,10.1592022 19.9396962,10.2081992 19.8186655,10.2555251 C19.7335858,10.2887469 19.6845924,10.2717683 19.6310712,10.2065281 C19.6240432,10.1979051 19.6151906,10.1874774 19.6053243,10.185071 C19.5659268,10.1753785 19.5661296,10.1408199 19.5553172,10.1129457 C19.5508571,10.101248 19.5478162,10.0804593 19.5413288,10.0793898 C19.4871319,10.0701653 19.5051074,10.0488418 19.5290297,10.0237083 C19.5366659,10.015687 19.541126,10.0046576 19.5484244,9.99282613 C19.5213935,9.96742521 19.4768601,9.95278626 19.4979442,9.90412344 C19.4990254,9.90158335 19.4908486,9.89242565 19.4853073,9.89001925 C19.4505726,9.87457816 19.466656,9.84837511 19.4688184,9.82397685 C19.4728055,9.77865626 19.4738191,9.77310817 19.4944978,9.75365641 C19.4813878,9.74129017 19.4683454,9.72899078 19.4525999,9.71415129 C19.4673317,9.68768086 19.4810499,9.66334945 19.4949032,9.63855013 C19.4580737,9.6297935 19.4444907,9.60800218 19.4667235,9.5858098 C19.4919974,9.56060941 19.4878076,9.53708014 19.4841585,9.50920597 C19.482469,9.4960376 19.480239,9.47939331 19.4865237,9.46943347 C19.5020664,9.44463415 19.4991606,9.42284284 19.4910513,9.39657294 C19.4863885,9.38139923 19.4959169,9.36194747 19.4997688,9.34109198 C19.4619931,9.32578458 19.4502347,9.29737566 19.4655747,9.25753632 C19.4693591,9.24784386 19.4726028,9.23400704 19.4684806,9.2259857 C19.4489507,9.1881517 19.4705754,9.16081229 19.4840233,9.14517067 C19.4738191,9.10613346 19.4607768,9.07839298 19.4602361,9.05045197 C19.458344,8.94055956 19.4592225,8.83046663 19.4619256,8.72057422 C19.4623986,8.70339518 19.4776035,8.6866172 19.486794,8.66790073 C19.4628041,8.62578868 19.4628041,8.62578868 19.497336,8.59096268 C19.4864561,8.5668318 19.4716567,8.54604316 19.4680751,8.52344971 C19.4614525,8.48120396 19.509162,8.49590976 19.5245696,8.47986707 C19.5178119,8.44036196 19.507405,8.40413222 19.5067292,8.3677688 C19.5061886,8.33514867 19.5009852,8.30279592 19.5138924,8.26830414 C19.5252454,8.23788988 19.5162576,8.20012272 19.5162576,8.16309085 C19.5051074,8.16416036 19.4923353,8.16549726 19.478955,8.16683415 C19.477198,8.12625952 19.4753734,8.08702178 19.4736164,8.0477172 C19.4717918,8.00400087 19.4796984,7.96683532 19.5260563,7.96536474 L19.5260563,7.8638279 C19.5092296,7.83849382 19.490308,7.81496455 19.4767925,7.78869465 C19.4591549,7.75447025 19.4871994,7.73027253 19.5097026,7.70293312 C19.4638177,7.68147602 19.4559788,7.64457784 19.4457746,7.60520642 C19.4324619,7.55433773 19.4211765,7.49150387 19.3854282,7.46102277 C19.3517748,7.43241331 19.3235275,7.39297504 19.280616,7.37405804 C19.2719661,7.3702479 19.2631811,7.36677198 19.2545312,7.36296185 C19.0788305,7.28428584 18.905022,7.31436587 18.7370251,7.38227991 C18.6455256,7.41931178 18.5622706,7.47619648 18.4758393,7.52485929 C18.4553635,7.5364234 18.4362391,7.55005968 18.41948,7.5663029 C18.3574441,7.62652982 18.2965571,7.68782625 18.2353997,7.74885531 C18.2159375,7.76817338 18.1882309,7.80306622 18.1716069,7.82485754 C18.1020699,7.91603348 18.010165,7.97893418 17.9015009,8.02037778 C17.8275714,8.04858618 17.7496549,8.04123328 17.681875,8.01188853 C17.6286918,7.98889401 17.5878752,7.98080582 17.5383411,8.01142062 C17.5194195,8.02305157 17.4857661,8.02920126 17.4636683,8.0262601 C17.2457319,7.99751696 17.0663145,8.08682125 16.9184556,8.22826427 C16.7979655,8.34350423 16.7320102,8.49945252 16.7078851,8.66602908 C16.6955185,8.75165693 16.6955185,8.83902272 16.6911936,8.92565323 C16.684098,9.06849999 16.6786918,9.21148044 16.6713934,9.35426035 C16.6622029,9.53641169 16.6511203,9.7183625 16.6422001,9.90044699 C16.6368615,10.0104731 16.6353748,10.1206329 16.6298335,10.2305921 C16.6169938,10.4869409 16.6015862,10.743156 16.5894223,10.9995047 C16.5870571,11.0481007 16.5876653,11.0969641 16.5947609,11.1450921 C16.6134798,11.272832 16.6598377,11.3454252 16.7714077,11.3677512 C16.860542,11.3855987 16.9510278,11.3857993 17.0361075,11.3457594 C17.1065229,11.3126045 17.1803848,11.283995 17.2444479,11.2412145 C17.3230402,11.1887416 17.4188646,11.1460948 17.4319746,11.0335286 C17.4322449,11.0314564 17.4343398,11.0295179 17.4354886,11.0275126 C17.466439,10.9708284 17.4986733,10.9147459 17.5275288,10.8571259 C17.5360435,10.8402142 17.5409766,10.8176876 17.537395,10.7996396 C17.5322592,10.7734365 17.498876,10.7552548 17.5317861,10.7200278 C17.5467883,10.7039851 17.532597,10.6636778 17.5374626,10.6354026 C17.5428012,10.604253 17.5548299,10.574173 17.5646962,10.541085 C17.5486804,10.5281171 17.5327322,10.5154167 17.5158379,10.5017804 C17.523812,10.4943606 17.5302994,10.4882778 17.5415172,10.4777163 C17.4872528,10.4272487 17.5307725,10.3845351 17.5594252,10.3413535 C17.5440176,10.3246424 17.5098911,10.3388134 17.5134051,10.3022495 C17.5227308,10.2063276 17.4917128,10.1067961 17.5403008,10.0142832 C17.5423282,10.0104731 17.5446258,10.0035213 17.5428688,10.0014491 C17.5054986,9.95846804 17.539963,9.9211688 17.5495589,9.87919043 C17.5730758,9.90980523 17.5876049,9.88413693 17.6028097,9.8777867 C17.5997012,9.8582681 17.5972684,9.8405543 17.5941599,9.82297418 C17.5867264,9.78153058 17.596052,9.73554154 17.5507077,9.70506044 C17.5403684,9.69817545 17.5385438,9.66375052 17.5462476,9.64857681 C17.560574,9.62036842 17.5821311,9.5943659 17.6054452,9.5723072 C17.6300433,9.54911215 17.6334222,9.52631817 17.6217313,9.49690657 C17.6107163,9.46909925 17.5998363,9.44089086 17.5930786,9.41188033 C17.5886185,9.39249542 17.5840233,9.36682712 17.5931462,9.3523887 C17.602134,9.33808397 17.6282863,9.33434068 17.6453158,9.32665356 L17.6453158,9.23414073 C17.6381526,9.22939477 17.6269348,9.22197503 17.6140275,9.21341893 C17.6213935,9.1967078 17.6279484,9.18206885 17.6342331,9.16769727 C17.6784962,9.1752507 17.678361,9.1752507 17.6697111,9.13460923 C17.6683596,9.128259 17.6666026,9.1191013 17.6698463,9.11522432 C17.705527,9.07297857 17.689714,9.02190935 17.6957959,8.97465027 C17.6975529,8.96121452 17.6959987,8.94423601 17.7037025,8.935212 C17.7428972,8.88902243 17.743573,8.83267249 17.7489116,8.78454443 C17.7793889,8.75760609 17.8202731,8.73875593 17.8283824,8.71068123 C17.8463579,8.6487832 17.8908913,8.61502671 17.9359652,8.57906435 C17.9579954,8.56148424 17.9757682,8.54443889 17.9889457,8.5168321 C18.0086783,8.47538849 18.0347631,8.4362176 18.0706466,8.40727392 C18.1247083,8.36375813 18.1890418,8.33314333 18.2464148,8.29323715 C18.3339948,8.23247547 18.4277244,8.2620876 18.5196294,8.27224797 C18.5379428,8.2742533 18.557405,8.29243502 18.5708529,8.3078761 C18.6238334,8.36830355 18.6559325,8.43955982 18.5949103,8.55152441 C18.5480793,8.63755332 18.5393619,8.74076127 18.5865308,8.82658964 C18.6689749,8.97658876 18.5942346,9.11348636 18.6078176,9.25660049 C18.5753805,9.30011628 18.5918694,9.34369892 18.6063309,9.38788315 C18.6098449,9.39864512 18.6094394,9.41027607 18.6057903,9.42097119 C18.5771375,9.50720063 18.5634194,9.59349692 18.5939642,9.68260067 C18.598965,9.69723963 18.5955861,9.71515396 18.5945049,9.73146402 C18.5868011,9.85612907 18.5634869,9.97959091 18.5661225,10.1051249 C18.5683525,10.2081992 18.5670685,10.3113403 18.5701095,10.4143477 C18.5726099,10.501513 18.6078176,10.5787853 18.6643797,10.6430897 C18.6960734,10.6791189 18.740404,10.7049209 18.7810855,10.7323272 C18.8162256,10.7558564 18.8197396,10.769359 18.7885865,10.7959631 C18.7760848,10.8066583 18.7619611,10.8156154 18.7477699,10.8241047 C18.6950597,10.8554548 18.6423495,10.8870722 18.588896,10.9171523 C18.4035318,11.0214297 18.2178297,11.1252393 18.0321951,11.2290488 C17.7664141,11.3777111 17.5005655,11.5260391 17.2349871,11.6749687 C17.078546,11.7626687 16.9219021,11.8501014 16.7667448,11.9398067 C16.5870571,12.0434826 16.409194,12.1503001 16.2295063,12.2539092 C16.2044351,12.2683476 16.1726738,12.2714224 16.1444942,12.2807138 C16.1317897,12.2849919 16.1172606,12.2890025 16.1082728,12.297826 C16.057252,12.3478926 15.9952837,12.3800448 15.9312206,12.4098574 C15.8756046,12.4357263 15.8190425,12.460793 15.7666701,12.4922099 C15.6698996,12.5502978 15.5763052,12.6136664 15.4805484,12.6732917 C15.3325543,12.7654703 15.1838845,12.8565794 15.0352147,12.947889 C14.8462689,13.0638643 14.6561743,13.1782353 14.4681746,13.2958148 C14.3641733,13.3607877 14.2636185,13.4312418 14.1609687,13.4982869 C14.1426553,13.5102521 14.1213009,13.5175381 14.0954865,13.5297707 C14.0910264,13.503835 14.0862284,13.4883271 14.0859581,13.4726186 C14.0849444,13.4123248 14.0843362,13.3518974 14.0856878,13.2914699 C14.0867014,13.2406681 14.0889315,13.1895989 14.093797,13.1389307 C14.099879,13.0769658 14.1169084,13.0178753 14.1048797,12.9524345 C14.0946755,12.8973546 14.1093398,12.8376624 14.113462,12.7801093 C14.1164354,12.7388662 14.1315727,12.6942809 14.1205576,12.6571822 C14.103866,12.6008323 14.1041363,12.5460866 14.1100155,12.4908062 C14.1210306,12.3868629 14.1277208,12.2829197 14.1291399,12.1784417 C14.1296805,12.1418109 14.1404929,12.1053806 14.1439393,12.0686161 C14.1504267,11.9986299 14.1540083,11.9283763 14.1604957,11.8583901 C14.1752951,11.6975621 14.1934734,11.5369347 14.20584,11.3759063 C14.2182742,11.2150115 14.2237479,11.0536488 14.2351009,10.8926872 C14.2415207,10.8006423 14.2355064,10.7019797 14.2682137,10.6190925 C14.3028132,10.5314593 14.2615912,10.4450962 14.2946364,10.3631448 C14.2551713,10.2772496 14.3267356,10.192357 14.2974071,10.1061945 C14.2961907,10.102518 14.3075436,10.0959004 14.3085573,10.0898175 C14.3105846,10.0782534 14.3110577,10.0658204 14.3090979,10.0542563 C14.3065976,10.0385478 14.2976774,10.0233072 14.2976098,10.0078662 C14.2974071,9.96087445 14.2956501,9.9132143 14.301732,9.8668242 C14.3124768,9.78493965 14.2853108,9.7006487 14.229019,9.6395528 C14.1768494,9.58306917 14.1136647,9.55659874 14.0436548,9.54810948 C13.9373558,9.53520849 13.8332194,9.5424277 13.7315833,9.58955309 C13.5923743,9.65412491 13.4887109,9.74697196 13.4595176,9.89937748 C13.4380956,10.01181 13.42877,10.1268494 13.4197822,10.2412204 C13.4060641,10.4163531 13.3983603,10.5919536 13.3859936,10.76722 C13.3779519,10.8817247 13.3666666,10.9960288 13.3559218,11.1103998 C13.349975,11.173969 13.3596385,11.2408135 13.3182813,11.297765 C13.31497,11.3022436 13.3140915,11.3102649 13.3163216,11.315412 C13.342947,11.3775105 13.3232144,11.4416144 13.3201059,11.5033788 C13.3140915,11.6248353 13.2914532,11.745356 13.2809111,11.8666788 C13.2632059,12.0696856 13.2309716,12.2706203 13.1983318,12.4714881 C13.1755583,12.6117279 13.1341335,12.7432111 13.0283076,12.8505634 C12.9157916,12.9648007 12.7861786,13.0359901 12.6253449,13.0502949 C12.5354672,13.0582494 12.4646463,13.021017 12.4240325,12.9452821 C12.3924063,12.8864589 12.3643618,12.8200155 12.3582123,12.7547752 C12.3465214,12.6298428 12.3269916,12.5030387 12.3607802,12.3774378 C12.3649024,12.3621973 12.3609829,12.3448846 12.3613208,12.3285076 C12.3622669,12.2910747 12.3615911,12.2534412 12.3650376,12.2162088 C12.3701059,12.1605273 12.377269,12.1049127 12.3853783,12.0495654 C12.3892978,12.0220923 12.3922036,11.9928144 12.4043675,11.9686167 C12.426668,11.9241651 12.4238297,11.8853953 12.4032863,11.8404089 C12.3888923,11.8087914 12.3823373,11.7742997 12.3879462,11.7401421 C12.3992316,11.6721612 12.4030835,11.603044 12.4286953,11.5366005 C12.4546449,11.4692881 12.4657952,11.3965612 12.486271,11.3270429 C12.4947858,11.2981661 12.5047872,11.2658802 12.5247225,11.2451584 C12.5569568,11.2116693 12.5624305,11.1714957 12.5737159,11.1311885 C12.5822982,11.1003063 12.5925024,11.0686888 12.608383,11.0410152 C12.632035,10.9997721 12.658728,10.9580611 12.6777172,10.9166844 C12.6965712,10.8755081 12.7092757,10.8370725 12.7484029,10.8098 C12.7625266,10.8000407 12.7718522,10.7800541 12.7776638,10.7629419 C12.7928011,10.7184235 12.8228054,10.6868729 12.8594998,10.6596003 C12.8821382,10.6427555 12.9123452,10.6289855 12.9241036,10.6061915 C12.9633659,10.5304567 13.0222257,10.4650159 13.040877,10.3777838 C13.0500675,10.3346022 13.0487835,10.2884795 13.0625692,10.2491749 C13.0810178,10.1965683 13.0732464,10.1495766 13.0551357,10.1044565 C13.0445937,10.0781866 13.0136434,10.0471039 12.9876937,10.0356066 C12.9281582,10.0093367 12.8629462,9.99790632 12.7981397,10.0166896 C12.6672427,10.0545905 12.5287095,10.0753791 12.4240325,10.1749775 C12.4124768,10.18594 12.3942985,10.1898838 12.3815264,10.1999105 C12.2984065,10.2654181 12.2090019,10.3249766 12.1353427,10.3997756 C12.0666167,10.4694945 12.0143796,10.5553228 11.955655,10.6346004 C11.8229334,10.8138106 11.7244059,11.0101999 11.654869,11.2211612 C11.5790474,11.4512401 11.5483673,11.6901424 11.5153221,11.9283095 C11.4944408,12.0785091 11.5162682,12.233321 11.4659232,12.3809138 C11.4586248,12.4021703 11.4612604,12.4276381 11.4632201,12.4509 C11.4674775,12.501635 11.4778843,12.5521026 11.4791683,12.6029044 C11.4814659,12.6943478 11.4788304,12.7859248 11.4782222,12.8774349 C11.4770734,13.0694792 11.4636931,13.262192 11.5070101,13.4520973 C11.5278915,13.5437412 11.5522192,13.6356524 11.6113493,13.7103177 C11.7329206,13.8640602 11.8962547,13.9440731 12.0927015,13.9559714 C12.2092046,13.9629901 12.3240858,13.9470142 12.4375479,13.9212122 C12.4781618,13.9119877 12.5166808,13.8922685 12.5605384,13.9107845 C12.5704722,13.9149288 12.5870962,13.9063727 12.5995304,13.9010252 C12.6164247,13.8939397 12.6316971,13.883044 12.648659,13.8760253 C12.7087351,13.8512929 12.7668515,13.8206781 12.8332123,13.814261 C12.8424704,13.8133252 12.8565264,13.8089134 12.8642978,13.8036995 C12.9514724,13.7454111 13.0379711,13.6861869 13.1256187,13.6285669 C13.1419048,13.6178049 13.1658272,13.6039013 13.1799508,13.6089146 C13.1926553,13.6133932 13.2021837,13.6415347 13.2034001,13.6598501 C13.2065086,13.7084461 13.200224,13.7577774 13.2052922,13.8060391 C13.2150234,13.8980172 13.2123878,13.9891931 13.2029946,14.080837 C13.2006294,14.104032 13.1877222,14.1249544 13.16826,14.1380559 C13.0489862,14.218403 12.9291719,14.2983491 12.8133446,14.3833753 C12.6400091,14.5105136 12.4702552,14.6421973 12.2982713,14.7710736 C12.1966352,14.8472095 12.0941882,14.9223427 11.9909979,14.9964065 C11.8838205,15.0732777 11.774413,15.147074 11.6677086,15.22448 C11.5474888,15.3117121 11.4302424,15.4029549 11.3096847,15.4897191 C11.1548654,15.6011489 10.997343,15.7089691 10.8425237,15.820399 C10.8045453,15.8477384 10.773595,15.8843692 10.737306,15.9142487 C10.6918941,15.9514811 10.6440495,15.9857723 10.5977591,16.0221358 C10.529371,16.0759456 10.4613208,16.1302902 10.3933382,16.1846348 C10.2992707,16.2598349 10.2052033,16.3349682 10.1114062,16.4103019 C9.99753861,16.5019458 9.88421168,16.5941244 9.76993866,16.6853003 C9.70965982,16.7333615 9.64586696,16.7774789 9.58727754,16.8274786 C9.4961835,16.9053525 9.41009017,16.988975 9.31832036,17.0659799 C9.20472312,17.1615007 9.08653063,17.251674 8.97198731,17.3461253 C8.83379197,17.4601621 8.69667787,17.5754689 8.56023954,17.691511 C8.43995216,17.79385 8.31979993,17.8962558 8.20235079,18.0017365 C8.0918621,18.1009338 7.98529289,18.2044759 7.87635847,18.305478 C7.74512358,18.4272019 7.61199654,18.547121 7.48177531,18.6699812 C7.29830326,18.8430417 7.10773561,19.0094846 6.9525784,19.2096171 C6.89486749,19.2840151 6.83803508,19.3590146 6.78127025,19.434081 C6.74241337,19.4855513 6.73302014,19.5499226 6.73599354,19.6077431 C6.74052121,19.6954431 6.75667216,19.7838784 6.79877274,19.8649609 C6.83425076,19.933276 6.88229813,19.9863505 6.9493347,20.0267915 C7.07232517,20.1011226 7.20565495,20.1154942 7.34553971,20.1106145 C7.42832176,20.1076733 7.49333101,20.0748527 7.55104192,20.0198396 C7.61199654,19.9616849 7.67491089,19.9056023 7.73573036,19.8473807 C7.79864471,19.7872207 7.86000479,19.7255232 7.92224338,19.6646947 C7.93738066,19.6498552 7.95366677,19.636152 7.9686689,19.6212457 C8.00178172,19.5882914 8.03455665,19.5551365 8.06712885,19.5217142 C8.08679381,19.5015272 8.10618846,19.4810727 8.12511007,19.4600835 C8.17978001,19.3993887 8.23424722,19.3384934 8.28857928,19.2774643 C8.3086497,19.254804 8.32649007,19.2301384 8.34791204,19.2088818 C8.50644811,19.0515298 8.6657951,18.8949799 8.82446632,18.7378284 C8.860958,18.7016655 8.89616571,18.6640989 8.93137342,18.626666 C8.95509301,18.6013987 8.97847472,18.5756636 9.00057246,18.5490595 C9.0229405,18.5221211 9.04111876,18.4915063 9.06544655,18.4666402 C9.10950687,18.4216538 9.15755425,18.3806113 9.20249307,18.3364939 C9.27946348,18.2610264 9.35291988,18.1818825 9.43232307,18.1092225 C9.50652281,18.0412416 9.58781816,17.9810147 9.66336945,17.9144375 C9.69654984,17.8852933 9.72229675,17.8480609 9.75304437,17.8160424 C9.81805362,17.7483289 9.88400895,17.681618 9.94976154,17.6146398 C9.9546271,17.6096265 9.96091178,17.60595 9.96645311,17.6015383 C10.0856593,17.5058169 10.2056763,17.4110314 10.3239364,17.3141737 C10.4917305,17.1766745 10.6574974,17.036702 10.825697,16.8997376 C10.9372669,16.8088959 11.0531618,16.723268 11.164529,16.6322926 C11.3268493,16.4994725 11.4857233,16.3626418 11.6484491,16.2302896 C11.7417057,16.1544211 11.8400305,16.0847022 11.9351115,16.0110396 C12.0281653,15.9389143 12.1194621,15.8645164 12.2124483,15.7921906 C12.3424668,15.6910548 12.4728908,15.5903201 12.6039229,15.4903875 C12.7293462,15.3947999 12.8540936,15.2982095 12.9824903,15.2066325 C13.0504729,15.1581034 13.1227129,15.113986 13.2067789,15.0822348 C13.2096172,15.1038925 13.2140097,15.1197346 13.2134015,15.1353762 C13.2111039,15.1909909 13.2048868,15.2464718 13.2042786,15.3020197 C13.2026567,15.4684625 13.202927,15.6349054 13.2026567,15.8013483 C13.2023188,16.0119754 13.2021161,16.2227362 13.2019134,16.4333633 C13.2015755,16.686303 13.201981,16.9392427 13.2002915,17.1921155 C13.1999536,17.2370351 13.217794,17.2857647 13.1785993,17.3260051 C13.1735985,17.3311522 13.180559,17.3474622 13.1814375,17.3586921 C13.1838027,17.3883711 13.1885331,17.4181837 13.1875194,17.4477959 C13.1848839,17.5223275 13.1765044,17.5967255 13.1760989,17.671324 C13.1758286,17.7365642 13.1855597,17.8018713 13.1866409,17.8672453 C13.1879249,17.9510683 13.1857624,18.035025 13.1834648,18.1189149 C13.1808969,18.2142352 13.1756259,18.3095555 13.1729904,18.4048758 C13.1699494,18.5147682 13.1700845,18.6246606 13.1658272,18.734553 C13.1611643,18.8561432 13.1512305,18.9775997 13.1469731,19.0992568 C13.1413642,19.2605526 13.1435267,19.4222495 13.1342011,19.5833449 C13.1213614,19.8050682 13.1288625,20.0239171 13.2009673,20.2362154 C13.2255654,20.308608 13.2444194,20.3833402 13.3011843,20.4432329 C13.3772086,20.5234463 13.4689784,20.5713738 13.5741961,20.5991143 C13.5919689,20.6037266 13.6088632,20.6115474 13.6261629,20.6178976 C13.6821844,20.6345419 13.732124,20.6339403 13.7889564,20.629796 C13.8339628,20.6266543 13.8778879,20.6120822 13.9172178,20.5900235 C13.9784428,20.5556654 14.0401407,20.5219757 14.0978517,20.4825375 C14.1355597,20.4568692 14.1648206,20.4167624 14.1921218,20.379129 C14.2096243,20.3549981 14.2122598,20.3203726 14.2296947,20.2961749 C14.2476027,20.2711082 14.2753769,20.2529265 14.2990965,20.2315363 C14.2796343,20.2203732 14.2615236,20.2100792 14.2369255,20.195975 C14.2466566,20.1757211 14.2546307,20.1574725 14.2639564,20.1399592 C14.2688895,20.1308684 14.2828104,20.1218444 14.2814589,20.1146252 C14.2738902,20.0724463 14.3007184,20.0462432 14.3291008,20.0176338 C14.3049757,20.0039306 14.270241,19.995174 14.2678083,19.9809361 C14.2605775,19.9384898 14.2270592,19.9154285 14.2065158,19.8843458 C14.2185445,19.8631561 14.229019,19.8446401 14.2399665,19.8251884 C14.2225991,19.8187713 14.2115841,19.8146269 14.200569,19.8106163 C14.2747687,19.8080093 14.2406422,19.7321408 14.2792964,19.7111516 C14.2634833,19.6894271 14.2326681,19.6861517 14.2512519,19.6464461 C14.2625372,19.6221147 14.2246264,19.5981843 14.1899594,19.5985854 C14.1529271,19.5989865 14.1327215,19.5829438 14.1315051,19.544575 C14.1304914,19.5088132 14.1271802,19.4731851 14.1251528,19.4419018 C14.145426,19.4329447 14.1588738,19.4270624 14.1722541,19.42118 C14.1717811,19.4175036 14.1712405,19.4137603 14.1707674,19.4100838 C14.1533325,19.4072095 14.13583,19.4043352 14.11826,19.4015277 C14.1802958,19.3844824 14.1989471,19.3342153 14.2199636,19.2850846 C14.1787415,19.2211144 14.1510349,19.1564757 14.1582657,19.0802061 C14.1602254,19.0590164 14.1561708,19.0322786 14.1148135,19.0374924 C14.0808222,19.0418373 14.0519667,18.9928403 14.0642658,18.9570116 C14.0758891,18.9233888 14.088999,18.8919719 14.055278,18.8584159 C14.0759566,18.8493251 14.08981,18.8433091 14.1014332,18.8382289 C14.1218416,18.7878281 14.0783218,18.7429086 14.0928509,18.6937779 C14.0575757,18.6716523 14.0554132,18.6410375 14.0769027,18.6070137 C14.058792,18.6048078 14.0476418,18.6034041 14.0316936,18.6014656 C14.046966,18.562161 14.0605491,18.5274018 14.0703477,18.5022015 C14.0412896,18.4717872 14.0153399,18.4445146 13.9908094,18.4188463 C14.0150696,18.3654376 14.0150696,18.3654376 13.9955398,18.2858926 C14.0082443,18.2787402 14.0218949,18.2709194 14.0361537,18.2628312 C14.0166915,18.2420426 14.0183133,18.2044091 13.9789834,18.205746 C13.9746585,18.2058797 13.9683738,18.1968556 13.9658734,18.1909065 C13.9451948,18.142979 13.9645895,18.1014017 14.0168266,18.0824178 C14.0106095,18.072859 14.00446,18.0635008 13.9985808,18.0540089 C13.9640488,17.9985279 13.9472221,17.9452528 14.0102716,17.8954537 C14.0187188,17.8888361 14.0197324,17.8649726 14.0155426,17.851871 C13.9991214,17.8006013 13.9792537,17.7504679 13.9636434,17.7081553 C13.9797943,17.6651743 13.9917555,17.6267387 14.0085146,17.5904421 C14.0230437,17.5588915 14.0309502,17.5312178 14.0064197,17.500202 C14.0005405,17.4927154 14.0085822,17.4744668 14.0106095,17.4579562 C13.9993917,17.4430499 13.9846599,17.4234645 13.9656031,17.3981972 C13.9923637,17.3917133 14.0096634,17.3876358 14.0296663,17.3827561 C14.027639,17.3715263 14.0293284,17.3588926 14.0239898,17.3544809 C14.00669,17.3405104 13.9868899,17.329481 13.9691171,17.3181175 C13.9691171,17.2881711 13.9629676,17.2571553 13.9708741,17.2302838 C13.9785779,17.2044149 14.0007432,17.1827573 14.0177051,17.1576238 C14.0138532,17.1146427 14.0050682,17.0648436 14.006217,17.0153118 C14.0074334,16.9617693 14.0181106,16.9085611 14.0239898,16.8550854 C14.0246656,16.8485347 14.0237871,16.8391764 14.0195973,16.8351658 C14.0003378,16.8163824 14.0016893,16.7969307 14.00669,16.771864 C14.0137856,16.736169 14.0128396,16.6989366 14.0141235,16.6623727 C14.0187188,16.5361702 14.0231789,16.4100346 14.0269632,16.2837652 C14.027639,16.2595675 14.0227058,16.2205972 14.0146641,16.1976695 C14.003987,16.166921 13.9979726,16.1379105 14.0328424,16.1105711 C14.0389919,16.1057583 14.0400056,16.0851033 14.0348697,16.0771488 C14.0123665,16.0421891 14.0200027,16.0027508 14.0187188,15.9663874 C14.0155426,15.8714013 14.014056,15.7758137 14.0225031,15.6814292 C14.0261523,15.6403198 14.0463578,15.6022853 14.0184485,15.5621786 C14.0133802,15.5550262 14.0158805,15.5381145 14.0210164,15.529291 C14.0439926,15.4903875 14.039938,15.4549599 14.0158805,15.4178612 C14.0076361,15.4050271 14.007974,15.3868454 14.0074334,15.3845726 C14.025071,15.3621129 14.0468309,15.338851 14.044736,15.3364446 C13.9966886,15.2823674 14.0344643,15.2284907 14.0471688,15.1779562 C14.0591299,15.1308308 14.0616303,15.0913925 14.0248683,15.0592403 C14.0302745,15.0101764 14.0712938,14.9659254 14.0279768,14.9183321 C14.0237195,14.9136529 14.0337209,14.8921958 14.0415599,14.8817013 C14.0588596,14.8585062 14.0776461,14.8377844 14.0527777,14.8079049 C14.0481824,14.8023568 14.0514261,14.78979 14.0519667,14.7806323 C14.0568323,14.7034269 14.0692665,14.6258872 14.0647388,14.5492834 C14.0607518,14.4805672 14.0971083,14.4504204 14.1469803,14.4199393 C14.189689,14.3939367 14.2422641,14.3770919 14.2582123,14.3204078 C14.2603748,14.3129212 14.2714574,14.3073731 14.2790937,14.3018918 C14.3521446,14.2506221 14.4244522,14.198216 14.4987195,14.1485505 C14.6603641,14.040396 14.8189002,13.9279635 14.9929114,13.8385255 C15.0628538,13.8025632 15.1225245,13.747617 15.1889528,13.7045023 C15.3413394,13.6055724 15.493388,13.505974 15.6485452,13.4114559 C15.8239756,13.3045715 16.0027172,13.2027004 16.1801073,13.0988908 C16.387772,12.9774343 16.59395,12.8534377 16.8037096,12.7357245 C17.1121994,12.562664 17.422649,12.3929458 17.7335716,12.2242302 C17.9411011,12.111664 18.1508607,12.0032422 18.3597417,11.8931492 C18.5267925,11.805115 18.6936406,11.716546 18.8614347,11.6297818 C19.0040226,11.5561191 19.1453265,11.4791142 19.2918338,11.4137403 C19.507405,11.3174842 19.7248008,11.2244366 19.945643,11.1408141 C20.1556053,11.0613359 20.370298,10.9934219 20.5842474,10.9247057 C20.7645433,10.8668183 20.9476775,10.8176208 21.11189,10.7196267 C21.2840767,10.6168866 21.4308543,10.4911521 21.5103251,10.3015142 C21.5250569,10.2664208 21.547425,10.2341349 21.5688469,10.2023169 C21.5731719,10.1959667 21.5893228,10.1974372 21.6,10.1952982 L21.6,10.1671567 C21.5673602,10.1271836 21.5673602,10.1271836 21.6,10.0825983 L21.6,10.0544568 Z" id="Fill-12" fill="#E10A0A"></path>
            <path d="M8.76132461,10.3730298 C8.76231536,10.3714006 8.76594811,10.3712753 8.767137,10.3697088 C8.80287002,10.3218992 8.85108646,10.2783504 8.87109959,10.2252147 C8.90412455,10.1373653 8.92413768,10.0435632 8.86766499,9.95320745 C8.85485131,9.93278028 8.84804817,9.90884414 8.83906538,9.88628652 C8.81072996,9.81485407 8.77526115,9.79217114 8.6754597,9.79361232 C8.60498443,9.7931737 8.52268622,9.81861368 8.45036155,9.86253837 C8.36700654,9.91310502 8.28847318,9.97150419 8.21198736,10.0312192 C8.17176295,10.0627372 8.14098369,10.1049701 8.10459018,10.1411249 C8.05696818,10.1884333 8.04488104,10.2526598 8.01608327,10.3086779 C7.98801205,10.3632548 7.97295267,10.4230325 7.97427367,10.4864444 C7.97585887,10.5618245 8.00690233,10.6299986 8.06469602,10.6697251 C8.12902865,10.7139004 8.21172316,10.7437892 8.29587077,10.7038748 C8.3550515,10.6758658 8.41429829,10.6466035 8.46878948,10.6112632 C8.57532801,10.5423372 8.69434998,10.4861311 8.76132461,10.3730298" id="Fill-14" fill="#E10A0A"></path>
        </g>
    </g>
</svg>